<mxfile host="app.diagrams.net" modified="2024-04-15T07:38:22.356Z" agent="Mozilla/5.0 (Windows NT 10.0; Win64; x64) AppleWebKit/537.36 (KHTML, like Gecko) Chrome/123.0.0.0 Safari/537.36 Edg/123.0.0.0" etag="WbCwjhwhrfHbiJ0cE-UC" version="24.2.3" type="device" pages="2">
  <diagram name="연습 문제 1" id="UE-VwpbbPoiZuTp19D1H">
    <mxGraphModel dx="1626" dy="793" grid="1" gridSize="10" guides="1" tooltips="1" connect="1" arrows="1" fold="1" page="1" pageScale="1" pageWidth="827" pageHeight="1169" math="0" shadow="0">
      <root>
        <mxCell id="0" />
        <mxCell id="1" parent="0" />
        <mxCell id="ZlUw9msO_Vp9tiCS9GRF-20" value="" style="whiteSpace=wrap;html=1;fillColor=none;" vertex="1" parent="1">
          <mxGeometry x="150" y="460" width="280" height="230" as="geometry" />
        </mxCell>
        <mxCell id="ZlUw9msO_Vp9tiCS9GRF-1" value="&lt;span style=&quot;color: rgb(29, 28, 29); font-family: Monaco, Menlo, Consolas, &amp;quot;Courier New&amp;quot;, monospace; font-size: 17px; font-style: normal; font-variant-ligatures: none; font-variant-caps: normal; font-weight: 400; letter-spacing: normal; orphans: 2; text-align: left; text-indent: 0px; text-transform: none; widows: 2; word-spacing: 0px; -webkit-text-stroke-width: 0px; white-space: pre-wrap; background-color: rgba(29, 28, 29, 0.04); text-decoration-thickness: initial; text-decoration-style: initial; text-decoration-color: initial; float: none; display: inline !important;&quot;&gt;다음은 부동산 정보를 저장하는 데이터베이스이다.&lt;br&gt;아래와 같은 하나의 릴레이션에 정보가 저장되어있고,&lt;br&gt;&lt;br&gt;```&lt;br&gt;부동산(필지번호, 주소, 공시지가, 소유자이름, 주민등록번호, 전화번호)&lt;br&gt;```&lt;br&gt;다음과 같은 함수 종속성을 가진다. &lt;br&gt;&lt;br&gt;```&lt;br&gt;함수 종속성&lt;br&gt;&lt;span style=&quot;white-space: pre;&quot;&gt;&amp;nbsp;&amp;nbsp;&amp;nbsp;&amp;nbsp;&lt;/span&gt;- 필지번호 -&amp;gt; 주소, 공시지가 : 땅에 대한 고유 번호이며 필지에 대하여 주소와 공시가격이 주어진다.&lt;br&gt;&lt;span style=&quot;white-space: pre;&quot;&gt;&amp;nbsp;&amp;nbsp;&amp;nbsp;&amp;nbsp;&lt;/span&gt;- 소유자이름 -&amp;gt; 전화번호 : 소유자는 하나의 전화번호를 갖는다&lt;br&gt;&lt;span style=&quot;white-space: pre;&quot;&gt;&amp;nbsp;&amp;nbsp;&amp;nbsp;&amp;nbsp;&lt;/span&gt;- 주민등록번호 -&amp;gt; 소유자이름 : 사람마다 고유한 주민등록번호가 있다.&lt;br&gt;```&lt;br&gt;&lt;br&gt;1. 함수 종속성 다이어그램을 그리시오.&lt;br&gt;2. 테이블을 분해하시오.&lt;/span&gt;" style="text;whiteSpace=wrap;html=1;" vertex="1" parent="1">
          <mxGeometry x="40" y="20" width="660" height="380" as="geometry" />
        </mxCell>
        <mxCell id="ZlUw9msO_Vp9tiCS9GRF-5" value="" style="edgeStyle=orthogonalEdgeStyle;rounded=0;orthogonalLoop=1;jettySize=auto;html=1;" edge="1" parent="1" source="ZlUw9msO_Vp9tiCS9GRF-3" target="ZlUw9msO_Vp9tiCS9GRF-4">
          <mxGeometry relative="1" as="geometry" />
        </mxCell>
        <mxCell id="ZlUw9msO_Vp9tiCS9GRF-7" value="" style="edgeStyle=orthogonalEdgeStyle;rounded=0;orthogonalLoop=1;jettySize=auto;html=1;" edge="1" parent="1" source="ZlUw9msO_Vp9tiCS9GRF-3" target="ZlUw9msO_Vp9tiCS9GRF-6">
          <mxGeometry relative="1" as="geometry" />
        </mxCell>
        <mxCell id="ZlUw9msO_Vp9tiCS9GRF-3" value="필지 번호" style="whiteSpace=wrap;html=1;align=center;" vertex="1" parent="1">
          <mxGeometry x="164" y="500" width="100" height="40" as="geometry" />
        </mxCell>
        <mxCell id="ZlUw9msO_Vp9tiCS9GRF-4" value="주소" style="whiteSpace=wrap;html=1;align=center;" vertex="1" parent="1">
          <mxGeometry x="314" y="520" width="100" height="40" as="geometry" />
        </mxCell>
        <mxCell id="ZlUw9msO_Vp9tiCS9GRF-6" value="공시지가" style="whiteSpace=wrap;html=1;align=center;" vertex="1" parent="1">
          <mxGeometry x="314" y="470" width="100" height="40" as="geometry" />
        </mxCell>
        <mxCell id="ZlUw9msO_Vp9tiCS9GRF-11" value="" style="edgeStyle=orthogonalEdgeStyle;rounded=0;orthogonalLoop=1;jettySize=auto;html=1;" edge="1" parent="1" source="ZlUw9msO_Vp9tiCS9GRF-9" target="ZlUw9msO_Vp9tiCS9GRF-10">
          <mxGeometry relative="1" as="geometry" />
        </mxCell>
        <mxCell id="ZlUw9msO_Vp9tiCS9GRF-17" value="" style="edgeStyle=orthogonalEdgeStyle;rounded=0;orthogonalLoop=1;jettySize=auto;html=1;" edge="1" parent="1" source="ZlUw9msO_Vp9tiCS9GRF-9" target="ZlUw9msO_Vp9tiCS9GRF-3">
          <mxGeometry relative="1" as="geometry" />
        </mxCell>
        <mxCell id="ZlUw9msO_Vp9tiCS9GRF-19" value="" style="edgeStyle=orthogonalEdgeStyle;rounded=0;orthogonalLoop=1;jettySize=auto;html=1;" edge="1" parent="1" source="ZlUw9msO_Vp9tiCS9GRF-9" target="ZlUw9msO_Vp9tiCS9GRF-14">
          <mxGeometry relative="1" as="geometry" />
        </mxCell>
        <mxCell id="ZlUw9msO_Vp9tiCS9GRF-9" value="소유자 이름" style="whiteSpace=wrap;html=1;align=center;" vertex="1" parent="1">
          <mxGeometry x="164" y="610" width="100" height="40" as="geometry" />
        </mxCell>
        <mxCell id="ZlUw9msO_Vp9tiCS9GRF-10" value="전화번호" style="whiteSpace=wrap;html=1;align=center;" vertex="1" parent="1">
          <mxGeometry x="314" y="585" width="100" height="40" as="geometry" />
        </mxCell>
        <mxCell id="ZlUw9msO_Vp9tiCS9GRF-14" value="주민등록번호" style="whiteSpace=wrap;html=1;align=center;" vertex="1" parent="1">
          <mxGeometry x="314" y="640" width="100" height="40" as="geometry" />
        </mxCell>
        <mxCell id="ZlUw9msO_Vp9tiCS9GRF-22" value="" style="edgeStyle=orthogonalEdgeStyle;rounded=0;orthogonalLoop=1;jettySize=auto;html=1;entryX=0;entryY=0.5;entryDx=0;entryDy=0;" edge="1" parent="1" source="ZlUw9msO_Vp9tiCS9GRF-20" target="ZlUw9msO_Vp9tiCS9GRF-23">
          <mxGeometry relative="1" as="geometry">
            <mxPoint x="510" y="575" as="targetPoint" />
          </mxGeometry>
        </mxCell>
        <mxCell id="ZlUw9msO_Vp9tiCS9GRF-23" value="부동산" style="whiteSpace=wrap;html=1;align=center;" vertex="1" parent="1">
          <mxGeometry x="520" y="555" width="100" height="40" as="geometry" />
        </mxCell>
        <mxCell id="ZlUw9msO_Vp9tiCS9GRF-30" value="" style="edgeStyle=orthogonalEdgeStyle;rounded=0;orthogonalLoop=1;jettySize=auto;html=1;" edge="1" parent="1" source="ZlUw9msO_Vp9tiCS9GRF-24" target="ZlUw9msO_Vp9tiCS9GRF-29">
          <mxGeometry relative="1" as="geometry" />
        </mxCell>
        <mxCell id="ZlUw9msO_Vp9tiCS9GRF-24" value="소유자 이름" style="whiteSpace=wrap;html=1;align=center;" vertex="1" parent="1">
          <mxGeometry x="80" y="885" width="100" height="40" as="geometry" />
        </mxCell>
        <mxCell id="ZlUw9msO_Vp9tiCS9GRF-25" value="전화번호" style="whiteSpace=wrap;html=1;align=center;" vertex="1" parent="1">
          <mxGeometry x="214" y="850" width="100" height="40" as="geometry" />
        </mxCell>
        <mxCell id="ZlUw9msO_Vp9tiCS9GRF-26" value="&lt;u&gt;주민등록번호&lt;/u&gt;" style="whiteSpace=wrap;html=1;align=center;" vertex="1" parent="1">
          <mxGeometry x="214" y="900" width="100" height="40" as="geometry" />
        </mxCell>
        <mxCell id="ZlUw9msO_Vp9tiCS9GRF-27" value="" style="edgeStyle=orthogonalEdgeStyle;rounded=0;orthogonalLoop=1;jettySize=auto;html=1;" edge="1" source="ZlUw9msO_Vp9tiCS9GRF-24" target="ZlUw9msO_Vp9tiCS9GRF-26" parent="1">
          <mxGeometry relative="1" as="geometry" />
        </mxCell>
        <mxCell id="ZlUw9msO_Vp9tiCS9GRF-28" value="" style="edgeStyle=orthogonalEdgeStyle;rounded=0;orthogonalLoop=1;jettySize=auto;html=1;" edge="1" source="ZlUw9msO_Vp9tiCS9GRF-24" target="ZlUw9msO_Vp9tiCS9GRF-25" parent="1">
          <mxGeometry relative="1" as="geometry" />
        </mxCell>
        <mxCell id="ZlUw9msO_Vp9tiCS9GRF-29" value="필지 번호" style="whiteSpace=wrap;html=1;align=center;" vertex="1" parent="1">
          <mxGeometry x="80" y="825" width="100" height="40" as="geometry" />
        </mxCell>
        <mxCell id="ZlUw9msO_Vp9tiCS9GRF-37" value="" style="edgeStyle=orthogonalEdgeStyle;rounded=0;orthogonalLoop=1;jettySize=auto;html=1;" edge="1" parent="1" source="ZlUw9msO_Vp9tiCS9GRF-31" target="ZlUw9msO_Vp9tiCS9GRF-36">
          <mxGeometry relative="1" as="geometry" />
        </mxCell>
        <mxCell id="ZlUw9msO_Vp9tiCS9GRF-31" value="&lt;u&gt;필지 번호&lt;/u&gt;" style="whiteSpace=wrap;html=1;align=center;" vertex="1" parent="1">
          <mxGeometry x="400" y="840" width="100" height="40" as="geometry" />
        </mxCell>
        <mxCell id="ZlUw9msO_Vp9tiCS9GRF-32" value="공시지가" style="whiteSpace=wrap;html=1;align=center;" vertex="1" parent="1">
          <mxGeometry x="540" y="830" width="100" height="40" as="geometry" />
        </mxCell>
        <mxCell id="ZlUw9msO_Vp9tiCS9GRF-33" value="주소" style="whiteSpace=wrap;html=1;align=center;" vertex="1" parent="1">
          <mxGeometry x="540" y="880" width="100" height="40" as="geometry" />
        </mxCell>
        <mxCell id="ZlUw9msO_Vp9tiCS9GRF-34" value="" style="edgeStyle=orthogonalEdgeStyle;rounded=0;orthogonalLoop=1;jettySize=auto;html=1;" edge="1" source="ZlUw9msO_Vp9tiCS9GRF-31" target="ZlUw9msO_Vp9tiCS9GRF-33" parent="1">
          <mxGeometry relative="1" as="geometry" />
        </mxCell>
        <mxCell id="ZlUw9msO_Vp9tiCS9GRF-35" value="" style="edgeStyle=orthogonalEdgeStyle;rounded=0;orthogonalLoop=1;jettySize=auto;html=1;" edge="1" source="ZlUw9msO_Vp9tiCS9GRF-31" target="ZlUw9msO_Vp9tiCS9GRF-32" parent="1">
          <mxGeometry relative="1" as="geometry" />
        </mxCell>
        <mxCell id="ZlUw9msO_Vp9tiCS9GRF-36" value="소유자 이름" style="whiteSpace=wrap;html=1;align=center;" vertex="1" parent="1">
          <mxGeometry x="400" y="900" width="100" height="40" as="geometry" />
        </mxCell>
        <mxCell id="ZlUw9msO_Vp9tiCS9GRF-38" value="&lt;u&gt;필지 번호&lt;/u&gt;" style="whiteSpace=wrap;html=1;align=center;" vertex="1" parent="1">
          <mxGeometry x="214" y="1040" width="100" height="40" as="geometry" />
        </mxCell>
        <mxCell id="ZlUw9msO_Vp9tiCS9GRF-39" value="&lt;u&gt;소유자 이름&lt;/u&gt;" style="whiteSpace=wrap;html=1;align=center;" vertex="1" parent="1">
          <mxGeometry x="214" y="1090" width="100" height="40" as="geometry" />
        </mxCell>
        <mxCell id="ZlUw9msO_Vp9tiCS9GRF-41" value="" style="edgeStyle=orthogonalEdgeStyle;rounded=0;orthogonalLoop=1;jettySize=auto;html=1;" edge="1" parent="1" source="ZlUw9msO_Vp9tiCS9GRF-40" target="ZlUw9msO_Vp9tiCS9GRF-38">
          <mxGeometry relative="1" as="geometry" />
        </mxCell>
        <mxCell id="ZlUw9msO_Vp9tiCS9GRF-42" value="" style="edgeStyle=orthogonalEdgeStyle;rounded=0;orthogonalLoop=1;jettySize=auto;html=1;" edge="1" parent="1" source="ZlUw9msO_Vp9tiCS9GRF-40" target="ZlUw9msO_Vp9tiCS9GRF-39">
          <mxGeometry relative="1" as="geometry" />
        </mxCell>
        <mxCell id="ZlUw9msO_Vp9tiCS9GRF-40" value="부동산" style="whiteSpace=wrap;html=1;align=center;" vertex="1" parent="1">
          <mxGeometry x="80" y="1070" width="100" height="40" as="geometry" />
        </mxCell>
        <mxCell id="ZlUw9msO_Vp9tiCS9GRF-43" value="&lt;b&gt;&lt;font style=&quot;font-size: 16px;&quot;&gt;소유자 정보&lt;/font&gt;&lt;/b&gt;" style="text;html=1;align=center;verticalAlign=middle;resizable=0;points=[];autosize=1;strokeColor=none;fillColor=none;" vertex="1" parent="1">
          <mxGeometry x="150" y="770" width="110" height="30" as="geometry" />
        </mxCell>
        <mxCell id="ZlUw9msO_Vp9tiCS9GRF-44" value="&lt;span style=&quot;font-size: 16px;&quot;&gt;&lt;b&gt;토지 정보&lt;/b&gt;&lt;/span&gt;" style="text;html=1;align=center;verticalAlign=middle;resizable=0;points=[];autosize=1;strokeColor=none;fillColor=none;" vertex="1" parent="1">
          <mxGeometry x="480" y="770" width="90" height="30" as="geometry" />
        </mxCell>
        <mxCell id="ZlUw9msO_Vp9tiCS9GRF-45" value="&lt;b&gt;&lt;font style=&quot;font-size: 16px;&quot;&gt;부동산&lt;/font&gt;&lt;/b&gt;" style="text;html=1;align=center;verticalAlign=middle;resizable=0;points=[];autosize=1;strokeColor=none;fillColor=none;" vertex="1" parent="1">
          <mxGeometry x="164" y="990" width="70" height="30" as="geometry" />
        </mxCell>
      </root>
    </mxGraphModel>
  </diagram>
  <diagram id="MEvBFNhbe3CfbR--P_4z" name="연습 문제 2">
    <mxGraphModel dx="1626" dy="793" grid="1" gridSize="10" guides="1" tooltips="1" connect="1" arrows="1" fold="1" page="1" pageScale="1" pageWidth="827" pageHeight="1169" math="0" shadow="0">
      <root>
        <mxCell id="0" />
        <mxCell id="1" parent="0" />
        <mxCell id="piRxPh5gM7qICJWVKNEx-21" style="edgeStyle=orthogonalEdgeStyle;rounded=0;orthogonalLoop=1;jettySize=auto;html=1;entryX=1;entryY=0.5;entryDx=0;entryDy=0;" edge="1" parent="1" source="piRxPh5gM7qICJWVKNEx-15" target="piRxPh5gM7qICJWVKNEx-10">
          <mxGeometry relative="1" as="geometry">
            <Array as="points">
              <mxPoint x="540" y="520" />
            </Array>
          </mxGeometry>
        </mxCell>
        <mxCell id="piRxPh5gM7qICJWVKNEx-15" value="" style="rounded=0;whiteSpace=wrap;html=1;fillColor=#f5f5f5;strokeColor=#666666;fontColor=#333333;" vertex="1" parent="1">
          <mxGeometry x="480" y="550" width="120" height="130" as="geometry" />
        </mxCell>
        <mxCell id="piRxPh5gM7qICJWVKNEx-1" value="&lt;span style=&quot;color: rgb(29, 28, 29); font-family: Monaco, Menlo, Consolas, &amp;quot;Courier New&amp;quot;, monospace; font-style: normal; font-variant-ligatures: none; font-variant-caps: normal; font-weight: 400; letter-spacing: normal; orphans: 2; text-align: left; text-indent: 0px; text-transform: none; widows: 2; word-spacing: 0px; -webkit-text-stroke-width: 0px; white-space: pre-wrap; background-color: rgba(29, 28, 29, 0.04); text-decoration-thickness: initial; text-decoration-style: initial; text-decoration-color: initial; float: none; display: inline !important;&quot;&gt;&lt;font style=&quot;font-size: 18px;&quot;&gt;다음은 배송(Shipping) 물품에 대한 릴레이션이다. 물음에 답하시오.&lt;br&gt;&lt;br&gt;릴레이션: &lt;br&gt;Shipping(shipname, shiptype, voyageID, cargo, port, date)&lt;/font&gt;&lt;/span&gt;&lt;div&gt;&lt;span style=&quot;color: rgb(29, 28, 29); font-family: Monaco, Menlo, Consolas, &amp;quot;Courier New&amp;quot;, monospace; font-style: normal; font-variant-ligatures: none; font-variant-caps: normal; font-weight: 400; letter-spacing: normal; orphans: 2; text-align: left; text-indent: 0px; text-transform: none; widows: 2; word-spacing: 0px; -webkit-text-stroke-width: 0px; white-space: pre-wrap; background-color: rgba(29, 28, 29, 0.04); text-decoration-thickness: initial; text-decoration-style: initial; text-decoration-color: initial; float: none; display: inline !important;&quot;&gt;&lt;font style=&quot;font-size: 18px;&quot;&gt;&lt;span style=&quot;color: rgb(13, 13, 13); font-family: Söhne, ui-sans-serif, system-ui, -apple-system, &amp;quot;Segoe UI&amp;quot;, Roboto, Ubuntu, Cantarell, &amp;quot;Noto Sans&amp;quot;, sans-serif, &amp;quot;Helvetica Neue&amp;quot;, Arial, &amp;quot;Apple Color Emoji&amp;quot;, &amp;quot;Segoe UI Emoji&amp;quot;, &amp;quot;Segoe UI Symbol&amp;quot;, &amp;quot;Noto Color Emoji&amp;quot;; font-size: 16px; font-variant-ligatures: normal; background-color: rgb(255, 255, 255);&quot;&gt;Shipping(선박이름, 선박유형, 항해ID, 화물, 항구, 날짜)&lt;/span&gt;&lt;br&gt;&lt;br&gt;함수 종속성: &lt;br&gt;shipname -&amp;gt; shiptype&lt;br&gt;voyageID -&amp;gt; shipname, cargo&lt;br&gt;{shipname, date} -&amp;gt; voyageID, port&lt;br&gt;&lt;br&gt;1. 함수 종속성 다이어그램을 그리시오.&lt;br&gt;2. 후보키를 찾으시오&lt;br&gt;3. 제2정규형으로 정규화하시오.&lt;br&gt;4. 제3정규형으로 정규화하시오&lt;br&gt;5. BCNF로 정규화하시오&lt;/font&gt;&lt;/span&gt;&lt;/div&gt;" style="text;whiteSpace=wrap;html=1;" vertex="1" parent="1">
          <mxGeometry x="30" y="20" width="610" height="340" as="geometry" />
        </mxCell>
        <mxCell id="piRxPh5gM7qICJWVKNEx-4" value="" style="edgeStyle=orthogonalEdgeStyle;rounded=0;orthogonalLoop=1;jettySize=auto;html=1;" edge="1" parent="1" source="piRxPh5gM7qICJWVKNEx-2" target="piRxPh5gM7qICJWVKNEx-3">
          <mxGeometry relative="1" as="geometry" />
        </mxCell>
        <mxCell id="piRxPh5gM7qICJWVKNEx-2" value="&lt;span style=&quot;color: rgb(13, 13, 13); font-family: Söhne, ui-sans-serif, system-ui, -apple-system, &amp;quot;Segoe UI&amp;quot;, Roboto, Ubuntu, Cantarell, &amp;quot;Noto Sans&amp;quot;, sans-serif, &amp;quot;Helvetica Neue&amp;quot;, Arial, &amp;quot;Apple Color Emoji&amp;quot;, &amp;quot;Segoe UI Emoji&amp;quot;, &amp;quot;Segoe UI Symbol&amp;quot;, &amp;quot;Noto Color Emoji&amp;quot;; font-size: 16px; text-align: left; white-space-collapse: preserve; background-color: rgb(255, 255, 255);&quot;&gt;선박이름&lt;/span&gt;" style="whiteSpace=wrap;html=1;align=center;" vertex="1" parent="1">
          <mxGeometry x="490" y="580" width="100" height="40" as="geometry" />
        </mxCell>
        <mxCell id="piRxPh5gM7qICJWVKNEx-3" value="&lt;span style=&quot;color: rgb(13, 13, 13); font-family: Söhne, ui-sans-serif, system-ui, -apple-system, &amp;quot;Segoe UI&amp;quot;, Roboto, Ubuntu, Cantarell, &amp;quot;Noto Sans&amp;quot;, sans-serif, &amp;quot;Helvetica Neue&amp;quot;, Arial, &amp;quot;Apple Color Emoji&amp;quot;, &amp;quot;Segoe UI Emoji&amp;quot;, &amp;quot;Segoe UI Symbol&amp;quot;, &amp;quot;Noto Color Emoji&amp;quot;; font-size: 16px; text-align: left; white-space-collapse: preserve; background-color: rgb(255, 255, 255);&quot;&gt;선박유형&lt;/span&gt;" style="whiteSpace=wrap;html=1;align=center;" vertex="1" parent="1">
          <mxGeometry x="620" y="580" width="100" height="40" as="geometry" />
        </mxCell>
        <mxCell id="piRxPh5gM7qICJWVKNEx-13" value="" style="edgeStyle=orthogonalEdgeStyle;rounded=0;orthogonalLoop=1;jettySize=auto;html=1;" edge="1" parent="1" source="piRxPh5gM7qICJWVKNEx-10" target="piRxPh5gM7qICJWVKNEx-12">
          <mxGeometry relative="1" as="geometry" />
        </mxCell>
        <mxCell id="piRxPh5gM7qICJWVKNEx-23" value="" style="edgeStyle=orthogonalEdgeStyle;rounded=0;orthogonalLoop=1;jettySize=auto;html=1;" edge="1" parent="1" source="piRxPh5gM7qICJWVKNEx-10" target="piRxPh5gM7qICJWVKNEx-22">
          <mxGeometry relative="1" as="geometry" />
        </mxCell>
        <mxCell id="piRxPh5gM7qICJWVKNEx-26" value="" style="edgeStyle=orthogonalEdgeStyle;rounded=0;orthogonalLoop=1;jettySize=auto;html=1;entryX=0;entryY=0.5;entryDx=0;entryDy=0;" edge="1" parent="1" source="piRxPh5gM7qICJWVKNEx-10" target="piRxPh5gM7qICJWVKNEx-2">
          <mxGeometry relative="1" as="geometry">
            <mxPoint x="420" y="620" as="targetPoint" />
            <Array as="points">
              <mxPoint x="420" y="600" />
            </Array>
          </mxGeometry>
        </mxCell>
        <mxCell id="piRxPh5gM7qICJWVKNEx-10" value="&lt;span style=&quot;color: rgb(13, 13, 13); font-family: Söhne, ui-sans-serif, system-ui, -apple-system, &amp;quot;Segoe UI&amp;quot;, Roboto, Ubuntu, Cantarell, &amp;quot;Noto Sans&amp;quot;, sans-serif, &amp;quot;Helvetica Neue&amp;quot;, Arial, &amp;quot;Apple Color Emoji&amp;quot;, &amp;quot;Segoe UI Emoji&amp;quot;, &amp;quot;Segoe UI Symbol&amp;quot;, &amp;quot;Noto Color Emoji&amp;quot;; font-size: 16px; text-align: left; white-space-collapse: preserve; background-color: rgb(255, 255, 255);&quot;&gt;항해ID&lt;/span&gt;" style="whiteSpace=wrap;html=1;align=center;" vertex="1" parent="1">
          <mxGeometry x="364" y="500" width="100" height="40" as="geometry" />
        </mxCell>
        <mxCell id="piRxPh5gM7qICJWVKNEx-12" value="&lt;span style=&quot;color: rgb(13, 13, 13); font-family: Söhne, ui-sans-serif, system-ui, -apple-system, &amp;quot;Segoe UI&amp;quot;, Roboto, Ubuntu, Cantarell, &amp;quot;Noto Sans&amp;quot;, sans-serif, &amp;quot;Helvetica Neue&amp;quot;, Arial, &amp;quot;Apple Color Emoji&amp;quot;, &amp;quot;Segoe UI Emoji&amp;quot;, &amp;quot;Segoe UI Symbol&amp;quot;, &amp;quot;Noto Color Emoji&amp;quot;; font-size: 16px; font-style: normal; font-variant-ligatures: normal; font-variant-caps: normal; font-weight: 400; letter-spacing: normal; orphans: 2; text-align: left; text-indent: 0px; text-transform: none; widows: 2; word-spacing: 0px; -webkit-text-stroke-width: 0px; white-space: pre-wrap; background-color: rgb(255, 255, 255); text-decoration-thickness: initial; text-decoration-style: initial; text-decoration-color: initial; display: inline !important; float: none;&quot;&gt;화물&lt;/span&gt;" style="whiteSpace=wrap;html=1;align=center;" vertex="1" parent="1">
          <mxGeometry x="240" y="500" width="100" height="40" as="geometry" />
        </mxCell>
        <mxCell id="piRxPh5gM7qICJWVKNEx-14" value="&lt;span style=&quot;color: rgb(13, 13, 13); font-family: Söhne, ui-sans-serif, system-ui, -apple-system, &amp;quot;Segoe UI&amp;quot;, Roboto, Ubuntu, Cantarell, &amp;quot;Noto Sans&amp;quot;, sans-serif, &amp;quot;Helvetica Neue&amp;quot;, Arial, &amp;quot;Apple Color Emoji&amp;quot;, &amp;quot;Segoe UI Emoji&amp;quot;, &amp;quot;Segoe UI Symbol&amp;quot;, &amp;quot;Noto Color Emoji&amp;quot;; font-size: 16px; text-align: left; white-space-collapse: preserve; background-color: rgb(255, 255, 255);&quot;&gt;날짜&lt;/span&gt;" style="whiteSpace=wrap;html=1;align=center;" vertex="1" parent="1">
          <mxGeometry x="490" y="630" width="100" height="40" as="geometry" />
        </mxCell>
        <mxCell id="piRxPh5gM7qICJWVKNEx-22" value="&lt;span style=&quot;color: rgb(13, 13, 13); font-family: Söhne, ui-sans-serif, system-ui, -apple-system, &amp;quot;Segoe UI&amp;quot;, Roboto, Ubuntu, Cantarell, &amp;quot;Noto Sans&amp;quot;, sans-serif, &amp;quot;Helvetica Neue&amp;quot;, Arial, &amp;quot;Apple Color Emoji&amp;quot;, &amp;quot;Segoe UI Emoji&amp;quot;, &amp;quot;Segoe UI Symbol&amp;quot;, &amp;quot;Noto Color Emoji&amp;quot;; font-size: 16px; text-align: left; white-space-collapse: preserve; background-color: rgb(255, 255, 255);&quot;&gt;항구&lt;/span&gt;" style="whiteSpace=wrap;html=1;align=center;" vertex="1" parent="1">
          <mxGeometry x="490" y="430" width="100" height="40" as="geometry" />
        </mxCell>
        <mxCell id="piRxPh5gM7qICJWVKNEx-31" style="edgeStyle=orthogonalEdgeStyle;rounded=0;orthogonalLoop=1;jettySize=auto;html=1;entryX=0;entryY=0.5;entryDx=0;entryDy=0;" edge="1" parent="1" source="piRxPh5gM7qICJWVKNEx-27" target="piRxPh5gM7qICJWVKNEx-30">
          <mxGeometry relative="1" as="geometry">
            <Array as="points">
              <mxPoint x="306" y="800" />
              <mxPoint x="306" y="750" />
            </Array>
          </mxGeometry>
        </mxCell>
        <mxCell id="piRxPh5gM7qICJWVKNEx-34" style="edgeStyle=orthogonalEdgeStyle;rounded=0;orthogonalLoop=1;jettySize=auto;html=1;entryX=0;entryY=0.5;entryDx=0;entryDy=0;" edge="1" parent="1" source="piRxPh5gM7qICJWVKNEx-27" target="piRxPh5gM7qICJWVKNEx-29">
          <mxGeometry relative="1" as="geometry" />
        </mxCell>
        <mxCell id="piRxPh5gM7qICJWVKNEx-35" style="edgeStyle=orthogonalEdgeStyle;rounded=0;orthogonalLoop=1;jettySize=auto;html=1;entryX=0;entryY=0.5;entryDx=0;entryDy=0;" edge="1" parent="1" source="piRxPh5gM7qICJWVKNEx-27" target="piRxPh5gM7qICJWVKNEx-28">
          <mxGeometry relative="1" as="geometry">
            <Array as="points">
              <mxPoint x="306" y="800" />
              <mxPoint x="306" y="850" />
            </Array>
          </mxGeometry>
        </mxCell>
        <mxCell id="piRxPh5gM7qICJWVKNEx-27" value="&lt;span style=&quot;color: rgb(13, 13, 13); font-family: Söhne, ui-sans-serif, system-ui, -apple-system, &amp;quot;Segoe UI&amp;quot;, Roboto, Ubuntu, Cantarell, &amp;quot;Noto Sans&amp;quot;, sans-serif, &amp;quot;Helvetica Neue&amp;quot;, Arial, &amp;quot;Apple Color Emoji&amp;quot;, &amp;quot;Segoe UI Emoji&amp;quot;, &amp;quot;Segoe UI Symbol&amp;quot;, &amp;quot;Noto Color Emoji&amp;quot;; font-size: 16px; text-align: left; white-space-collapse: preserve; background-color: rgb(255, 255, 255);&quot;&gt;선박이름&lt;/span&gt;" style="whiteSpace=wrap;html=1;align=center;" vertex="1" parent="1">
          <mxGeometry x="186" y="780" width="100" height="40" as="geometry" />
        </mxCell>
        <mxCell id="piRxPh5gM7qICJWVKNEx-28" value="&lt;span style=&quot;color: rgb(13, 13, 13); font-family: Söhne, ui-sans-serif, system-ui, -apple-system, &amp;quot;Segoe UI&amp;quot;, Roboto, Ubuntu, Cantarell, &amp;quot;Noto Sans&amp;quot;, sans-serif, &amp;quot;Helvetica Neue&amp;quot;, Arial, &amp;quot;Apple Color Emoji&amp;quot;, &amp;quot;Segoe UI Emoji&amp;quot;, &amp;quot;Segoe UI Symbol&amp;quot;, &amp;quot;Noto Color Emoji&amp;quot;; font-size: 16px; text-align: left; white-space-collapse: preserve; background-color: rgb(255, 255, 255);&quot;&gt;선박유형&lt;/span&gt;" style="whiteSpace=wrap;html=1;align=center;" vertex="1" parent="1">
          <mxGeometry x="330" y="830" width="100" height="40" as="geometry" />
        </mxCell>
        <mxCell id="piRxPh5gM7qICJWVKNEx-29" value="&lt;span style=&quot;color: rgb(13, 13, 13); font-family: Söhne, ui-sans-serif, system-ui, -apple-system, &amp;quot;Segoe UI&amp;quot;, Roboto, Ubuntu, Cantarell, &amp;quot;Noto Sans&amp;quot;, sans-serif, &amp;quot;Helvetica Neue&amp;quot;, Arial, &amp;quot;Apple Color Emoji&amp;quot;, &amp;quot;Segoe UI Emoji&amp;quot;, &amp;quot;Segoe UI Symbol&amp;quot;, &amp;quot;Noto Color Emoji&amp;quot;; font-size: 16px; text-align: left; white-space-collapse: preserve; background-color: rgb(255, 255, 255);&quot;&gt;날짜&lt;/span&gt;" style="whiteSpace=wrap;html=1;align=center;" vertex="1" parent="1">
          <mxGeometry x="330" y="780" width="100" height="40" as="geometry" />
        </mxCell>
        <mxCell id="piRxPh5gM7qICJWVKNEx-30" value="&lt;span style=&quot;color: rgb(13, 13, 13); font-family: Söhne, ui-sans-serif, system-ui, -apple-system, &amp;quot;Segoe UI&amp;quot;, Roboto, Ubuntu, Cantarell, &amp;quot;Noto Sans&amp;quot;, sans-serif, &amp;quot;Helvetica Neue&amp;quot;, Arial, &amp;quot;Apple Color Emoji&amp;quot;, &amp;quot;Segoe UI Emoji&amp;quot;, &amp;quot;Segoe UI Symbol&amp;quot;, &amp;quot;Noto Color Emoji&amp;quot;; font-size: 16px; text-align: left; white-space-collapse: preserve; background-color: rgb(255, 255, 255);&quot;&gt;&lt;u&gt;항해ID&lt;/u&gt;&lt;/span&gt;" style="whiteSpace=wrap;html=1;align=center;" vertex="1" parent="1">
          <mxGeometry x="330" y="730" width="100" height="40" as="geometry" />
        </mxCell>
        <mxCell id="MuOLP3L6SQHWKfJgmotq-6" style="edgeStyle=orthogonalEdgeStyle;rounded=0;orthogonalLoop=1;jettySize=auto;html=1;entryX=0;entryY=0.5;entryDx=0;entryDy=0;" edge="1" parent="1" source="MuOLP3L6SQHWKfJgmotq-1" target="MuOLP3L6SQHWKfJgmotq-3">
          <mxGeometry relative="1" as="geometry" />
        </mxCell>
        <mxCell id="MuOLP3L6SQHWKfJgmotq-7" style="edgeStyle=orthogonalEdgeStyle;rounded=0;orthogonalLoop=1;jettySize=auto;html=1;entryX=0;entryY=0.5;entryDx=0;entryDy=0;" edge="1" parent="1" source="MuOLP3L6SQHWKfJgmotq-1" target="MuOLP3L6SQHWKfJgmotq-4">
          <mxGeometry relative="1" as="geometry" />
        </mxCell>
        <mxCell id="MuOLP3L6SQHWKfJgmotq-8" style="edgeStyle=orthogonalEdgeStyle;rounded=0;orthogonalLoop=1;jettySize=auto;html=1;entryX=0;entryY=0.5;entryDx=0;entryDy=0;" edge="1" parent="1" source="MuOLP3L6SQHWKfJgmotq-1" target="MuOLP3L6SQHWKfJgmotq-2">
          <mxGeometry relative="1" as="geometry" />
        </mxCell>
        <mxCell id="MuOLP3L6SQHWKfJgmotq-1" value="&lt;span style=&quot;color: rgb(13, 13, 13); font-family: Söhne, ui-sans-serif, system-ui, -apple-system, &amp;quot;Segoe UI&amp;quot;, Roboto, Ubuntu, Cantarell, &amp;quot;Noto Sans&amp;quot;, sans-serif, &amp;quot;Helvetica Neue&amp;quot;, Arial, &amp;quot;Apple Color Emoji&amp;quot;, &amp;quot;Segoe UI Emoji&amp;quot;, &amp;quot;Segoe UI Symbol&amp;quot;, &amp;quot;Noto Color Emoji&amp;quot;; font-size: 16px; text-align: left; white-space-collapse: preserve; background-color: rgb(255, 255, 255);&quot;&gt;화물&lt;/span&gt;" style="whiteSpace=wrap;html=1;align=center;" vertex="1" parent="1">
          <mxGeometry x="190" y="960" width="100" height="40" as="geometry" />
        </mxCell>
        <mxCell id="MuOLP3L6SQHWKfJgmotq-2" value="&lt;u style=&quot;color: rgb(13, 13, 13); font-family: Söhne, ui-sans-serif, system-ui, -apple-system, &amp;quot;Segoe UI&amp;quot;, Roboto, Ubuntu, Cantarell, &amp;quot;Noto Sans&amp;quot;, sans-serif, &amp;quot;Helvetica Neue&amp;quot;, Arial, &amp;quot;Apple Color Emoji&amp;quot;, &amp;quot;Segoe UI Emoji&amp;quot;, &amp;quot;Segoe UI Symbol&amp;quot;, &amp;quot;Noto Color Emoji&amp;quot;; font-size: 16px; text-align: left; white-space-collapse: preserve;&quot;&gt;항해ID&lt;/u&gt;" style="whiteSpace=wrap;html=1;align=center;" vertex="1" parent="1">
          <mxGeometry x="330" y="910" width="100" height="40" as="geometry" />
        </mxCell>
        <mxCell id="MuOLP3L6SQHWKfJgmotq-3" value="&lt;span style=&quot;color: rgb(13, 13, 13); font-family: Söhne, ui-sans-serif, system-ui, -apple-system, &amp;quot;Segoe UI&amp;quot;, Roboto, Ubuntu, Cantarell, &amp;quot;Noto Sans&amp;quot;, sans-serif, &amp;quot;Helvetica Neue&amp;quot;, Arial, &amp;quot;Apple Color Emoji&amp;quot;, &amp;quot;Segoe UI Emoji&amp;quot;, &amp;quot;Segoe UI Symbol&amp;quot;, &amp;quot;Noto Color Emoji&amp;quot;; font-size: 16px; text-align: left; white-space-collapse: preserve; background-color: rgb(255, 255, 255);&quot;&gt;항구&lt;/span&gt;" style="whiteSpace=wrap;html=1;align=center;" vertex="1" parent="1">
          <mxGeometry x="330" y="960" width="100" height="40" as="geometry" />
        </mxCell>
        <mxCell id="MuOLP3L6SQHWKfJgmotq-4" value="&lt;span style=&quot;color: rgb(13, 13, 13); font-family: Söhne, ui-sans-serif, system-ui, -apple-system, &amp;quot;Segoe UI&amp;quot;, Roboto, Ubuntu, Cantarell, &amp;quot;Noto Sans&amp;quot;, sans-serif, &amp;quot;Helvetica Neue&amp;quot;, Arial, &amp;quot;Apple Color Emoji&amp;quot;, &amp;quot;Segoe UI Emoji&amp;quot;, &amp;quot;Segoe UI Symbol&amp;quot;, &amp;quot;Noto Color Emoji&amp;quot;; font-size: 16px; text-align: left; white-space-collapse: preserve; background-color: rgb(255, 255, 255);&quot;&gt;날짜&lt;/span&gt;" style="whiteSpace=wrap;html=1;align=center;" vertex="1" parent="1">
          <mxGeometry x="330" y="1010" width="100" height="40" as="geometry" />
        </mxCell>
      </root>
    </mxGraphModel>
  </diagram>
</mxfile>
